<svg width="1440" height="864" viewBox="0 0 1440 864" fill="none" xmlns="http://www.w3.org/2000/svg">
<path d="M-119.175 0C-119.393 0 -119.603 0.0574221 -119.758 0.159668C-119.913 0.261914 -120 0.400562 -120 0.54516L-119.999 783.454C-119.999 783.755 -119.629 783.999 -119.173 783.999L1462.17 784C1462.39 784 1462.6 783.943 1462.76 783.84C1462.91 783.738 1463 783.6 1463 783.455L1463 0.545853C1463 0.244784 1462.63 0.00069284 1462.17 0.00069284L-119.175 0Z" fill="#06212F"/>
<path d="M519.293 226.687L509.817 218.893L500.34 211.1C503.651 211.501 506.961 211.903 510.272 212.304C511.766 209.35 513.261 206.396 514.755 203.442L519.293 226.687Z" fill="#BBC1C9"/>
<path d="M507.367 223.902L506.12 224.657L504.873 225.412C506.799 220.974 508.725 216.536 510.65 212.098C515.315 212.562 519.98 213.025 524.645 213.488L507.367 223.902Z" fill="#BBC1C9"/>
<path d="M394.808 678.832L387.157 682.119L379.505 685.406C380.778 683.534 382.051 681.663 383.325 679.792C382.009 677.971 380.693 676.15 379.377 674.328L394.808 678.832Z" fill="#BBC1C9"/>
<path d="M389.414 685.156L389.481 686.144L389.548 687.13C387.471 684.587 385.395 682.043 383.318 679.499C385.051 676.831 386.783 674.162 388.516 671.494L389.414 685.156Z" fill="#BBC1C9"/>
<path d="M639.804 806.813C639.804 806.812 639.808 806.812 639.817 806.812C639.826 806.812 639.847 806.812 639.879 806.812C639.928 806.812 639.962 806.812 639.982 806.812C640.012 806.812 640.037 806.813 640.057 806.813L640.085 806.814C640.102 806.813 640.115 806.813 640.125 806.813L640.138 806.813C640.145 806.813 640.15 806.813 640.154 806.813C640.159 806.813 640.161 806.813 640.16 806.813C640.165 806.813 640.19 806.813 640.235 806.813C640.252 806.813 640.273 806.813 640.297 806.813L640.379 806.814L640.413 806.813C640.434 806.813 640.45 806.812 640.463 806.812C640.499 806.812 640.517 806.812 640.516 806.812L640.502 806.814L640.463 806.812L640.405 806.813L640.332 806.812L640.248 806.812L639.915 806.813L639.857 806.812L639.818 806.813H639.804Z" fill="#117BBD"/>
<path d="M398.545 584.195L394.947 597.922L391.349 611.651C394.18 609.031 397.01 606.41 399.841 603.79C403.244 605.545 406.646 607.301 410.049 609.056L398.545 584.195Z" fill="#BBC1C9"/>
<path d="M389.256 594.889L387.575 595.027L385.895 595.165C390.708 598.018 395.522 600.872 400.335 603.726C404.393 600.13 408.45 596.534 412.508 592.937L389.256 594.889Z" fill="#BBC1C9"/>
<path d="M1230.71 405.003L1225.94 413.37L1221.17 421.738C1223.49 420.518 1225.8 419.297 1228.12 418.077C1230.04 419.825 1231.97 421.574 1233.89 423.323L1230.71 405.003Z" fill="#BBC1C9"/>
<path d="M1222.74 410.382L1221.62 410.177L1220.49 409.972C1223.15 412.689 1225.8 415.405 1228.46 418.121C1231.75 416.477 1235.04 414.832 1238.33 413.187L1222.74 410.382Z" fill="#BBC1C9"/>
<path d="M1005.04 679.048L1000.26 687.415L995.494 695.783C997.81 694.563 1000.13 693.342 1002.44 692.122C1004.37 693.871 1006.29 695.62 1008.21 697.368L1005.04 679.048Z" fill="#BBC1C9"/>
<path d="M997.067 684.427L995.941 684.222L994.814 684.017C997.469 686.734 1000.12 689.451 1002.78 692.167C1006.07 690.522 1009.36 688.877 1012.65 687.231L997.067 684.427Z" fill="#BBC1C9"/>
<path d="M971.057 206.298L966.286 214.667L961.516 223.035C963.832 221.814 966.148 220.594 968.464 219.373C970.387 221.121 972.309 222.87 974.231 224.619L971.057 206.298Z" fill="#BBC1C9"/>
<path d="M963.088 211.679L961.962 211.473L960.836 211.268C963.491 213.985 966.145 216.701 968.799 219.418C972.091 217.773 975.383 216.128 978.675 214.483L963.088 211.679Z" fill="#BBC1C9"/>
<path d="M924.504 195.199L920.906 208.926L917.308 222.654C920.139 220.034 922.969 217.414 925.8 214.794C929.203 216.549 932.605 218.305 936.008 220.06L924.504 195.199Z" fill="#BBC1C9"/>
<path d="M915.216 205.893L913.535 206.031L911.854 206.168C916.668 209.023 921.481 211.877 926.294 214.73C930.352 211.134 934.409 207.537 938.467 203.941L915.216 205.893Z" fill="#BBC1C9"/>
<path d="M174.705 310.538L169.934 318.905L165.164 327.274C167.48 326.053 169.796 324.832 172.112 323.611C174.035 325.36 175.957 327.109 177.879 328.858L174.705 310.538Z" fill="#BBC1C9"/>
<path d="M166.736 315.917L165.61 315.712L164.484 315.507C167.138 318.224 169.793 320.94 172.447 323.657C175.739 322.012 179.031 320.367 182.323 318.722L166.736 315.917Z" fill="#BBC1C9"/>
<path d="M1121.71 260.827L1128.74 248.498L1135.76 236.17C1132.35 237.968 1128.94 239.766 1125.53 241.565C1122.7 238.988 1119.86 236.412 1117.03 233.835L1121.71 260.827Z" fill="#BBC1C9"/>
<path d="M1133.45 252.901L1135.11 253.203L1136.77 253.505C1132.86 249.503 1128.94 245.501 1125.03 241.498C1120.18 243.921 1115.33 246.345 1110.48 248.769L1133.45 252.901Z" fill="#BBC1C9"/>
<path d="M535.393 206.146L545.017 206.544L554.641 206.942C552.494 205.445 550.346 203.947 548.199 202.449C548.87 199.939 549.542 197.429 550.213 194.918L535.393 206.146Z" fill="#BBC1C9"/>
<path d="M543.829 210.757L544.164 211.851L544.498 212.946C545.694 209.341 546.89 205.736 548.085 202.131C545.113 199.961 542.141 197.791 539.169 195.621L543.829 210.757Z" fill="#BBC1C9"/>
<path d="M392.413 310.441L399.187 303.593L405.961 296.744C403.408 297.324 400.854 297.904 398.301 298.483C396.897 296.296 395.493 294.11 394.088 291.923L392.413 310.441Z" fill="#BBC1C9"/>
<path d="M401.503 307.306L402.537 307.796L403.572 308.285C401.711 304.975 399.85 301.664 397.989 298.353C394.384 299.09 390.778 299.827 387.173 300.564L401.503 307.306Z" fill="#BBC1C9"/>
<path d="M246.039 496.603L252.813 489.755L259.587 482.907C257.034 483.486 254.481 484.066 251.928 484.646C250.523 482.459 249.119 480.272 247.715 478.086L246.039 496.603Z" fill="#BBC1C9"/>
<path d="M255.129 493.47L256.164 493.959L257.198 494.448C255.337 491.137 253.477 487.826 251.616 484.515C248.01 485.252 244.405 485.989 240.799 486.725L255.129 493.47Z" fill="#BBC1C9"/>
<path d="M359.219 582.817L365.992 575.97L372.766 569.121C370.213 569.701 367.66 570.28 365.107 570.86C363.702 568.673 362.298 566.487 360.894 564.3L359.219 582.817Z" fill="#BBC1C9"/>
<path d="M368.308 579.684L369.343 580.173L370.377 580.662C368.516 577.351 366.655 574.04 364.795 570.729C361.189 571.466 357.584 572.203 353.978 572.94L368.308 579.684Z" fill="#BBC1C9"/>
<path d="M1222.85 730.515L1229.62 723.666L1236.39 716.818C1233.84 717.397 1231.29 717.977 1228.73 718.557C1227.33 716.37 1225.93 714.184 1224.52 711.997L1222.85 730.515Z" fill="#BBC1C9"/>
<path d="M1231.94 727.381L1232.97 727.87L1234 728.359C1232.14 725.048 1230.28 721.738 1228.42 718.427C1224.82 719.164 1221.21 719.9 1217.61 720.637L1231.94 727.381Z" fill="#BBC1C9"/>
<path d="M331.682 393.252L317.994 397L304.307 400.748C307.991 401.889 311.676 403.03 315.36 404.172C315.541 407.997 315.723 411.821 315.904 415.645L331.682 393.252Z" fill="#BBC1C9"/>
<path d="M317.776 390.555L316.816 389.168L315.857 387.782C315.792 393.378 315.727 398.973 315.662 404.568C320.806 406.283 325.949 407.999 331.092 409.715L317.776 390.555Z" fill="#BBC1C9"/>
<path d="M452.858 692.639L439.171 696.387L425.483 700.135C429.167 701.276 432.852 702.417 436.536 703.558C436.717 707.383 436.899 711.207 437.079 715.031L452.858 692.639Z" fill="#BBC1C9"/>
<path d="M438.952 689.941L437.992 688.555L437.033 687.168C436.968 692.764 436.903 698.359 436.839 703.954C441.982 705.67 447.125 707.386 452.268 709.102L438.952 689.941Z" fill="#BBC1C9"/>
<path d="M276.831 675.885L263.143 679.633L249.455 683.381C253.14 684.522 256.824 685.663 260.509 686.805C260.69 690.629 260.871 694.453 261.052 698.278L276.831 675.885Z" fill="#BBC1C9"/>
<path d="M262.924 673.188L261.965 671.802L261.005 670.415C260.941 676.01 260.876 681.605 260.811 687.201C265.954 688.917 271.098 690.632 276.241 692.348L262.924 673.188Z" fill="#BBC1C9"/>
<path d="M581.287 702.035L590.605 704.477L599.923 706.919C598.144 704.998 596.366 703.077 594.587 701.155C595.779 698.846 596.97 696.537 598.162 694.227L581.287 702.035Z" fill="#BBC1C9"/>
<path d="M588.546 708.339L588.64 709.48L588.733 710.621C590.67 707.354 592.607 704.087 594.544 700.82C592.103 698.066 589.662 695.312 587.221 692.558L588.546 708.339Z" fill="#BBC1C9"/>
<path d="M434.388 657.892L443.705 660.335L453.023 662.776C451.244 660.855 449.466 658.934 447.688 657.012C448.879 654.703 450.07 652.393 451.262 650.084L434.388 657.892Z" fill="#BBC1C9"/>
<path d="M441.647 664.196L441.74 665.337L441.833 666.478C443.77 663.211 445.707 659.944 447.644 656.677C445.203 653.923 442.762 651.169 440.321 648.415L441.647 664.196Z" fill="#BBC1C9"/>
<path d="M893.979 550.321L905.867 550.006L906.173 561.578L894.285 561.893L893.979 550.321Z" fill="#BBC1C9"/>
<path d="M943.115 448.501C942.893 557.842 854.076 646.298 744.737 646.077C635.398 645.856 546.941 557.041 547.162 447.701C547.383 338.361 636.199 249.903 745.538 250.124C854.878 250.345 943.337 339.162 943.115 448.501Z" fill="#459397"/>
<path d="M849.142 361.153C849.142 361.153 806.436 369.894 791.168 361.665C791.168 361.665 780.995 348.413 752.29 359.703C752.29 359.703 701.9 389.846 701.18 420.107C701.18 420.107 687.047 479.969 739.924 488.264C739.924 488.264 795.401 470.1 802.366 491.545C802.366 491.545 804.23 518.028 809.323 523.709C809.323 523.709 817.573 535.903 816.926 543.259C816.926 543.259 811.128 567.828 818.755 586.767C818.755 586.767 823.807 603.164 823.164 608.206C823.164 608.206 871.64 594.429 887.017 549.078C887.017 549.078 896.008 517.579 896.658 509.382C896.658 509.382 909.47 472.848 912.685 461.511C912.685 461.511 924.227 427.489 905.09 431.873C905.09 431.873 891.726 419.23 882.197 409.752C872.648 400.277 854.244 364.313 849.142 361.153Z" fill="#71AF4B"/>
<path d="M891.745 408.521L838.312 359.237C838.312 359.237 849.806 349.178 845.998 343.505C842.192 337.814 833.888 345.364 826.873 345.35C819.875 345.335 810.304 350.988 806.489 345.93C802.676 340.879 800.128 342.135 796.291 345.287C792.461 348.43 785.442 353.464 784.808 350.302C784.181 347.15 772.705 348.394 772.078 345.238C771.452 342.083 773.997 333.266 768.263 335.143C762.546 337.015 754.233 343.319 752.954 346.461C751.677 349.612 747.205 359.052 742.73 359.043C738.267 359.034 726.794 361.533 724.89 357.746C722.984 353.96 719.186 341.336 723.024 337.573C726.849 333.793 745.548 337.833 744.687 333.207C743.837 328.586 741.651 318.436 744.465 316.997C747.291 315.57 754.955 299.188 760.068 297.309C765.157 295.43 778.533 302.39 780.46 297.979C780.46 297.979 781.119 284.742 778.573 282.843C776.024 280.944 774.112 275.282 769.683 275.882C765.195 276.506 763.279 280.923 766.467 282.819C769.665 284.715 772.184 292.286 770.271 292.282C768.341 292.278 751.147 293.504 750.517 289.098C749.881 284.681 752.455 273.965 758.186 270.199C763.954 266.435 776.046 267.081 779.867 268.982C783.699 270.879 788.157 267.105 789.449 263.958C790.716 260.817 771.355 250.222 765.613 250.212C765.613 250.212 916.617 261.788 942.228 416.248C942.228 416.248 926.251 363.204 915.423 360.033C915.423 360.033 909.679 363.804 905.856 363.163C902.033 362.522 882.943 350.502 881.663 353.66C880.372 356.807 890.55 367.543 901.404 368.818C912.21 370.108 912.859 371.37 913.47 377.047C914.103 382.714 915.997 391.551 914.724 397.212C913.424 402.882 905.746 419.891 891.745 408.521Z" fill="#71AF4B"/>
<path d="M733.927 295.998C733.927 295.998 728.835 299.137 726.268 303.535C723.702 307.945 723.695 311.729 723.695 311.729C723.695 311.729 726.93 313.618 730.19 313.636C733.464 313.653 742.184 310.515 742.193 306.1C742.202 301.684 733.927 295.998 733.927 295.998Z" fill="#71AF4B"/>
<path d="M726.36 258.154C726.36 258.154 711.026 276.405 703.381 278.283C695.722 280.16 682.971 286.429 679.785 288.956C676.59 291.471 665.766 287.038 672.145 282.007C678.538 276.966 695.752 265.651 691.941 264.394C688.12 263.131 670.888 275.079 663.874 280.101C656.842 285.131 651.096 292.667 647.919 297.709C644.706 302.747 645.325 315.985 638.316 318.493C631.278 321 600.672 333.543 590.471 342.354C580.253 351.154 569.259 357.644 564.766 366.461C560.296 375.279 567.05 352.377 571.01 343.93C571.01 343.93 598.208 295.72 660.083 265.578C660.073 265.586 707.248 253.711 726.36 258.154Z" fill="#71AF4B"/>
<path d="M547.488 479.685C547.488 479.685 541.175 445.627 548.185 442.493C555.194 439.358 557.315 438.693 563.488 445.046C569.627 451.394 578.093 462.095 581.261 467.778C584.464 473.45 595.918 480.406 595.909 484.816C595.9 489.231 593.321 499.948 595.868 504.99C598.39 510.04 602.214 510.68 607.957 513.213C613.688 515.74 624.514 519.541 630.861 525.236C637.219 530.926 646.144 537.871 644.21 545.432C642.278 552.994 638.436 564.328 639.7 568.735C640.964 573.153 645.412 580.723 640.315 583.872C635.2 587.013 631.382 586.384 632.012 592.043C632.646 597.722 638.997 615.37 640.897 618.524C640.894 618.522 561.508 584.547 547.488 479.685Z" fill="#71AF4B"/>
<path d="M821.62 772.781L821.579 772.823L820.786 773.624C820.898 773.518 821.032 773.385 821.19 773.228C821.429 772.985 821.572 772.836 821.62 772.781Z" fill="#ABC1CE"/>
</svg>
