<svg width="1440" height="864" viewBox="0 0 1440 864" fill="none" xmlns="http://www.w3.org/2000/svg">
<path d="M-142.175 0C-142.393 0 -142.603 0.0574221 -142.758 0.159668C-142.913 0.261914 -143 0.400562 -143 0.54516L-142.999 783.454C-142.999 783.755 -142.629 783.999 -142.173 783.999L1439.17 784C1439.39 784 1439.6 783.943 1439.76 783.84C1439.91 783.738 1440 783.6 1440 783.455L1440 0.545853C1440 0.244784 1439.63 0.00069284 1439.17 0.00069284L-142.175 0Z" fill="#06212F"/>
<path d="M371.808 678.832L364.157 682.119L356.505 685.406C357.778 683.534 359.051 681.663 360.325 679.792C359.009 677.971 357.693 676.15 356.377 674.328L371.808 678.832Z" fill="#BBC1C9"/>
<path d="M366.414 685.156L366.481 686.144L366.548 687.13C364.471 684.587 362.395 682.043 360.318 679.499C362.051 676.831 363.783 674.162 365.516 671.494L366.414 685.156Z" fill="#BBC1C9"/>
<path d="M616.804 806.813C616.804 806.812 616.808 806.812 616.817 806.812C616.826 806.812 616.847 806.812 616.879 806.812C616.928 806.812 616.962 806.812 616.982 806.812C617.012 806.812 617.037 806.813 617.057 806.813L617.085 806.814C617.102 806.813 617.115 806.813 617.125 806.813L617.138 806.813C617.145 806.813 617.15 806.813 617.154 806.813C617.159 806.813 617.161 806.813 617.16 806.813C617.165 806.813 617.19 806.813 617.235 806.813C617.252 806.813 617.273 806.813 617.297 806.813L617.379 806.814L617.413 806.813C617.434 806.813 617.45 806.812 617.463 806.812C617.499 806.812 617.517 806.812 617.516 806.812L617.502 806.814L617.463 806.812L617.405 806.813L617.332 806.812L617.248 806.812L616.915 806.813L616.857 806.812L616.818 806.813H616.804Z" fill="#117BBD"/>
<path d="M375.545 584.195L371.947 597.922L368.349 611.651C371.18 609.031 374.01 606.41 376.841 603.79C380.244 605.545 383.646 607.301 387.049 609.056L375.545 584.195Z" fill="#BBC1C9"/>
<path d="M366.256 594.889L364.575 595.027L362.895 595.165C367.708 598.018 372.522 600.872 377.335 603.726C381.393 600.13 385.45 596.534 389.508 592.937L366.256 594.889Z" fill="#BBC1C9"/>
<path d="M1207.71 405.003L1202.94 413.37L1198.17 421.738C1200.49 420.518 1202.8 419.297 1205.12 418.077C1207.04 419.825 1208.97 421.574 1210.89 423.323L1207.71 405.003Z" fill="#BBC1C9"/>
<path d="M1199.74 410.382L1198.62 410.177L1197.49 409.972C1200.15 412.689 1202.8 415.405 1205.46 418.121C1208.75 416.477 1212.04 414.832 1215.33 413.187L1199.74 410.382Z" fill="#BBC1C9"/>
<path d="M982.036 679.048L977.265 687.415L972.494 695.783C974.81 694.563 977.126 693.342 979.443 692.122C981.365 693.871 983.288 695.62 985.21 697.368L982.036 679.048Z" fill="#BBC1C9"/>
<path d="M974.067 684.427L972.941 684.222L971.814 684.017C974.469 686.734 977.123 689.451 979.777 692.167C983.07 690.522 986.362 688.877 989.654 687.231L974.067 684.427Z" fill="#BBC1C9"/>
<path d="M948.057 206.298L943.286 214.667L938.516 223.035C940.832 221.814 943.148 220.594 945.464 219.373C947.387 221.121 949.309 222.87 951.231 224.619L948.057 206.298Z" fill="#BBC1C9"/>
<path d="M940.088 211.679L938.962 211.473L937.836 211.268C940.491 213.985 943.145 216.701 945.799 219.418C949.091 217.773 952.383 216.128 955.675 214.483L940.088 211.679Z" fill="#BBC1C9"/>
<path d="M901.504 195.199L897.906 208.926L894.308 222.654C897.139 220.034 899.969 217.414 902.8 214.794C906.203 216.549 909.605 218.305 913.008 220.06L901.504 195.199Z" fill="#BBC1C9"/>
<path d="M892.216 205.893L890.535 206.031L888.854 206.168C893.668 209.023 898.481 211.877 903.294 214.73C907.352 211.134 911.409 207.537 915.467 203.941L892.216 205.893Z" fill="#BBC1C9"/>
<path d="M151.705 310.538L146.934 318.905L142.164 327.274C144.48 326.053 146.796 324.832 149.112 323.611C151.035 325.36 152.957 327.109 154.879 328.858L151.705 310.538Z" fill="#BBC1C9"/>
<path d="M143.736 315.917L142.61 315.712L141.484 315.507C144.138 318.224 146.793 320.94 149.447 323.657C152.739 322.012 156.031 320.367 159.323 318.722L143.736 315.917Z" fill="#BBC1C9"/>
<path d="M1098.71 260.827L1105.74 248.498L1112.76 236.17C1109.35 237.968 1105.94 239.766 1102.53 241.565C1099.7 238.988 1096.86 236.412 1094.03 233.835L1098.71 260.827Z" fill="#BBC1C9"/>
<path d="M1110.45 252.901L1112.11 253.203L1113.77 253.505C1109.86 249.503 1105.94 245.501 1102.03 241.498C1097.18 243.921 1092.33 246.345 1087.48 248.769L1110.45 252.901Z" fill="#BBC1C9"/>
<path d="M369.413 310.441L376.187 303.593L382.961 296.744C380.408 297.324 377.854 297.904 375.301 298.483C373.897 296.296 372.493 294.11 371.088 291.923L369.413 310.441Z" fill="#BBC1C9"/>
<path d="M378.503 307.306L379.537 307.796L380.572 308.285C378.711 304.975 376.85 301.664 374.989 298.353C371.384 299.09 367.778 299.827 364.173 300.564L378.503 307.306Z" fill="#BBC1C9"/>
<path d="M223.039 496.603L229.813 489.755L236.587 482.907C234.034 483.486 231.481 484.066 228.928 484.646C227.523 482.459 226.119 480.272 224.715 478.086L223.039 496.603Z" fill="#BBC1C9"/>
<path d="M232.129 493.47L233.164 493.959L234.198 494.448C232.337 491.137 230.477 487.826 228.616 484.515C225.01 485.252 221.405 485.989 217.799 486.725L232.129 493.47Z" fill="#BBC1C9"/>
<path d="M336.219 582.817L342.992 575.97L349.766 569.121C347.213 569.701 344.66 570.28 342.107 570.86C340.702 568.673 339.298 566.487 337.894 564.3L336.219 582.817Z" fill="#BBC1C9"/>
<path d="M345.308 579.684L346.343 580.173L347.377 580.662C345.516 577.351 343.655 574.04 341.795 570.729C338.189 571.466 334.584 572.203 330.978 572.94L345.308 579.684Z" fill="#BBC1C9"/>
<path d="M1199.85 730.515L1206.62 723.666L1213.39 716.818C1210.84 717.397 1208.29 717.977 1205.73 718.557C1204.33 716.37 1202.93 714.184 1201.52 711.997L1199.85 730.515Z" fill="#BBC1C9"/>
<path d="M1208.94 727.381L1209.97 727.87L1211 728.359C1209.14 725.048 1207.28 721.738 1205.42 718.427C1201.82 719.164 1198.21 719.9 1194.61 720.637L1208.94 727.381Z" fill="#BBC1C9"/>
<path d="M308.682 393.252L294.994 397L281.307 400.748C284.991 401.889 288.676 403.03 292.36 404.172C292.541 407.997 292.723 411.821 292.904 415.645L308.682 393.252Z" fill="#BBC1C9"/>
<path d="M294.776 390.555L293.816 389.168L292.857 387.782C292.792 393.378 292.727 398.973 292.662 404.568C297.806 406.283 302.949 407.999 308.092 409.715L294.776 390.555Z" fill="#BBC1C9"/>
<path d="M429.858 692.639L416.171 696.387L402.483 700.135C406.167 701.276 409.852 702.417 413.536 703.558C413.717 707.383 413.899 711.207 414.079 715.031L429.858 692.639Z" fill="#BBC1C9"/>
<path d="M415.952 689.941L414.992 688.555L414.033 687.168C413.968 692.764 413.903 698.359 413.839 703.954C418.982 705.67 424.125 707.386 429.268 709.102L415.952 689.941Z" fill="#BBC1C9"/>
<path d="M253.831 675.885L240.143 679.633L226.455 683.381C230.14 684.522 233.824 685.663 237.509 686.805C237.69 690.629 237.871 694.453 238.052 698.278L253.831 675.885Z" fill="#BBC1C9"/>
<path d="M239.924 673.188L238.965 671.802L238.005 670.415C237.941 676.01 237.876 681.605 237.811 687.201C242.954 688.917 248.098 690.632 253.241 692.348L239.924 673.188Z" fill="#BBC1C9"/>
<path d="M558.287 702.035L567.605 704.477L576.923 706.919C575.144 704.998 573.366 703.077 571.587 701.155C572.779 698.846 573.97 696.537 575.162 694.227L558.287 702.035Z" fill="#BBC1C9"/>
<path d="M565.546 708.339L565.64 709.48L565.733 710.621C567.67 707.354 569.607 704.087 571.544 700.82C569.103 698.066 566.662 695.312 564.221 692.558L565.546 708.339Z" fill="#BBC1C9"/>
<path d="M411.388 657.892L420.705 660.335L430.023 662.776C428.244 660.855 426.466 658.934 424.688 657.012C425.879 654.703 427.07 652.393 428.262 650.084L411.388 657.892Z" fill="#BBC1C9"/>
<path d="M418.647 664.196L418.74 665.337L418.833 666.478C420.77 663.211 422.707 659.944 424.644 656.677C422.203 653.923 419.762 651.169 417.321 648.415L418.647 664.196Z" fill="#BBC1C9"/>
<path d="M870.979 550.321L882.867 550.006L883.173 561.578L871.285 561.893L870.979 550.321Z" fill="#BBC1C9"/>
<path d="M920.115 448.501C919.893 557.842 831.076 646.298 721.737 646.077C612.398 645.856 523.941 557.041 524.162 447.701C524.383 338.361 613.199 249.903 722.538 250.124C831.878 250.345 920.337 339.162 920.115 448.501Z" fill="#459397"/>
<path d="M826.142 361.153C826.142 361.153 783.436 369.894 768.168 361.665C768.168 361.665 757.995 348.413 729.29 359.703C729.29 359.703 678.9 389.846 678.18 420.107C678.18 420.107 664.047 479.969 716.924 488.264C716.924 488.264 772.401 470.1 779.366 491.545C779.366 491.545 781.23 518.028 786.323 523.709C786.323 523.709 794.573 535.903 793.926 543.259C793.926 543.259 788.128 567.828 795.755 586.767C795.755 586.767 800.807 603.164 800.164 608.206C800.164 608.206 848.64 594.429 864.017 549.078C864.017 549.078 873.008 517.579 873.658 509.382C873.658 509.382 886.47 472.848 889.685 461.511C889.685 461.511 901.227 427.489 882.09 431.873C882.09 431.873 868.726 419.23 859.197 409.752C849.648 400.277 831.244 364.313 826.142 361.153Z" fill="#71AF4B"/>
<path d="M868.745 408.521L815.312 359.237C815.312 359.237 826.806 349.178 822.998 343.505C819.192 337.814 810.888 345.364 803.873 345.35C796.875 345.335 787.304 350.988 783.489 345.93C779.676 340.879 777.128 342.135 773.291 345.287C769.461 348.43 762.442 353.464 761.808 350.302C761.181 347.15 749.705 348.394 749.078 345.238C748.452 342.083 750.997 333.266 745.263 335.143C739.546 337.015 731.233 343.319 729.954 346.461C728.677 349.612 724.205 359.052 719.73 359.043C715.267 359.034 703.794 361.533 701.89 357.746C699.984 353.96 696.186 341.336 700.024 337.573C703.849 333.793 722.548 337.833 721.687 333.207C720.837 328.586 718.651 318.436 721.465 316.997C724.291 315.57 731.955 299.188 737.068 297.309C742.157 295.43 755.533 302.39 757.46 297.979C757.46 297.979 758.119 284.742 755.573 282.843C753.024 280.944 751.112 275.282 746.683 275.882C742.195 276.506 740.279 280.923 743.467 282.819C746.665 284.715 749.184 292.286 747.271 292.282C745.341 292.278 728.147 293.504 727.517 289.098C726.881 284.681 729.455 273.965 735.186 270.199C740.954 266.435 753.046 267.081 756.867 268.982C760.699 270.879 765.157 267.105 766.449 263.958C767.716 260.817 748.355 250.222 742.613 250.212C742.613 250.212 893.617 261.788 919.228 416.248C919.228 416.248 903.251 363.204 892.423 360.033C892.423 360.033 886.679 363.804 882.856 363.163C879.033 362.522 859.943 350.502 858.663 353.66C857.372 356.807 867.55 367.543 878.404 368.818C889.21 370.108 889.859 371.37 890.47 377.047C891.103 382.714 892.997 391.551 891.724 397.212C890.424 402.882 882.746 419.891 868.745 408.521Z" fill="#71AF4B"/>
<path d="M710.927 295.998C710.927 295.998 705.835 299.137 703.268 303.535C700.702 307.945 700.695 311.729 700.695 311.729C700.695 311.729 703.93 313.618 707.19 313.636C710.464 313.653 719.184 310.515 719.193 306.1C719.202 301.684 710.927 295.998 710.927 295.998Z" fill="#71AF4B"/>
<path d="M703.36 258.154C703.36 258.154 688.026 276.405 680.381 278.283C672.722 280.16 659.971 286.429 656.785 288.956C653.59 291.471 642.766 287.038 649.145 282.007C655.538 276.966 672.752 265.651 668.941 264.394C665.12 263.131 647.888 275.079 640.874 280.101C633.842 285.131 628.096 292.667 624.919 297.709C621.706 302.747 622.325 315.985 615.316 318.493C608.278 321 577.672 333.543 567.471 342.354C557.253 351.154 546.259 357.644 541.766 366.461C537.296 375.279 544.05 352.377 548.01 343.93C548.01 343.93 575.208 295.72 637.083 265.578C637.073 265.586 684.248 253.711 703.36 258.154Z" fill="#71AF4B"/>
<path d="M524.488 479.685C524.488 479.685 518.175 445.627 525.185 442.493C532.194 439.358 534.315 438.693 540.488 445.046C546.627 451.394 555.093 462.095 558.261 467.778C561.464 473.45 572.918 480.406 572.909 484.816C572.9 489.231 570.321 499.948 572.868 504.99C575.39 510.04 579.214 510.68 584.957 513.213C590.688 515.74 601.514 519.541 607.861 525.236C614.219 530.926 623.144 537.871 621.21 545.432C619.278 552.994 615.436 564.328 616.7 568.735C617.964 573.153 622.412 580.723 617.315 583.872C612.2 587.013 608.382 586.384 609.012 592.043C609.646 597.722 615.997 615.37 617.897 618.524C617.894 618.522 538.508 584.547 524.488 479.685Z" fill="#71AF4B"/>
<path d="M798.62 772.781L798.579 772.823L797.786 773.624C797.898 773.518 798.032 773.385 798.19 773.228C798.429 772.985 798.572 772.836 798.62 772.781Z" fill="#ABC1CE"/>
</svg>
